<?xml version="1.0" standalone="no"?>
<!DOCTYPE svg PUBLIC "-//W3C//DTD SVG 20010904//EN"
 "http://www.w3.org/TR/2001/REC-SVG-20010904/DTD/svg10.dtd">
<svg version="1.0" xmlns="http://www.w3.org/2000/svg"
 width="700.000000pt" height="700.000000pt" viewBox="0 0 700.000000 700.000000"
 preserveAspectRatio="xMidYMid meet">
<metadata>
Created by potrace 1.11, written by Peter Selinger 2001-2013
</metadata>
<g transform="translate(0.000000,700.000000) scale(0.100000,-0.100000)"
fill="#000000" stroke="none">
<path d="M3990 6781 c0 -27 -20 -38 -32 -17 -12 21 -24 20 -55 -4 -16 -12 -41
-20 -64 -20 -21 0 -45 -7 -53 -16 -18 -18 -36 -11 -36 14 -1 15 -2 15 -13 2
-7 -9 -20 -14 -30 -12 -10 2 -26 0 -35 -4 -40 -17 -42 -17 -189 -23 -13 -1
-23 -5 -23 -10 0 -6 12 -9 28 -7 26 2 52 -9 52 -23 0 -3 -24 -5 -52 -5 -29 1
-68 -4 -87 -12 -18 -8 -40 -14 -48 -14 -20 0 -113 -43 -113 -52 0 -14 -32 -38
-52 -38 -34 0 -147 -100 -193 -170 -16 -25 -44 -61 -61 -80 -18 -19 -50 -71
-70 -115 -20 -44 -49 -96 -64 -115 -39 -51 -47 -69 -16 -37 31 31 40 35 27 10
-22 -43 -40 -92 -51 -138 -7 -27 -15 -59 -18 -69 -3 -13 -1 -17 6 -12 9 5 9 0
1 -21 -13 -35 -15 -165 -4 -268 5 -44 9 -89 10 -100 3 -48 32 -179 46 -210 11
-25 107 -307 120 -355 6 -19 24 -78 40 -130 16 -52 35 -113 41 -135 14 -45 16
-182 5 -305 -13 -133 -22 -161 -67 -208 -40 -42 -45 -61 -41 -132 3 -46 61
-149 119 -209 52 -54 187 -151 210 -151 6 0 12 -3 14 -7 2 -5 37 -25 78 -47
41 -21 108 -56 148 -78 41 -22 76 -37 80 -34 3 3 1 6 -5 6 -5 0 -19 8 -31 18
-12 9 -40 28 -63 42 -25 16 -35 26 -26 28 9 2 34 -8 56 -22 22 -14 45 -26 50
-26 5 0 51 -20 101 -44 67 -31 87 -45 75 -50 -10 -3 -16 -9 -13 -11 13 -14
103 34 207 110 167 123 256 211 317 316 31 53 53 73 55 52 0 -5 2 -17 5 -28
20 -96 25 -306 10 -440 -9 -75 -10 -296 -2 -357 2 -19 -1 -28 -11 -28 -8 0
-11 -5 -7 -11 3 -6 15 -9 25 -6 17 5 18 -1 13 -91 -3 -54 -12 -128 -20 -166
-19 -90 -183 -586 -194 -586 -10 0 -21 35 -91 286 -27 100 -69 231 -92 291
-36 89 -43 119 -41 168 1 55 34 175 56 201 12 16 96 25 140 15 46 -11 43 -5
-33 66 -98 92 -236 193 -263 193 -17 0 -14 -43 3 -57 14 -11 14 -12 -1 -13
-11 0 -18 -8 -18 -19 0 -31 -21 -38 -108 -35 l-83 2 -74 -58 c-40 -32 -102
-86 -137 -118 l-63 -60 40 6 c22 4 54 6 70 6 17 -1 40 -2 53 -3 13 0 34 -13
49 -28 14 -16 31 -27 38 -25 7 1 36 -21 64 -49 l51 -51 1 -112 c0 -61 3 -131
7 -156 8 -60 7 -154 -1 -210 -4 -25 -10 -164 -13 -310 -3 -146 -8 -267 -11
-270 -12 -13 -74 87 -281 455 -94 166 -274 522 -347 685 -41 91 -59 153 -78
260 -3 14 -16 72 -30 130 -14 58 -28 132 -32 165 -3 33 -8 74 -11 90 -12 72
-15 96 -19 195 -3 68 0 126 9 163 7 31 10 60 5 63 -5 3 -25 -20 -45 -51 -44
-70 -195 -222 -266 -269 -29 -20 -98 -54 -153 -76 -55 -23 -120 -51 -145 -62
-25 -11 -63 -29 -85 -38 -22 -10 -98 -46 -170 -80 -71 -34 -179 -82 -240 -107
-60 -24 -119 -48 -130 -53 -11 -5 -42 -16 -70 -26 -27 -9 -54 -21 -59 -26 -6
-4 -16 -8 -24 -8 -28 0 -179 -78 -196 -101 -21 -30 -43 -107 -51 -174 -16
-145 -29 -185 -140 -425 -125 -270 -223 -528 -231 -610 -3 -25 -6 -67 -7 -95
-3 -40 -8 -52 -26 -61 -12 -6 -34 -23 -49 -36 -22 -21 -35 -24 -72 -21 -36 4
-43 2 -32 -8 17 -18 15 -29 -5 -29 -18 0 -102 -47 -118 -66 -5 -6 -29 -20 -52
-30 -31 -13 -46 -27 -57 -53 -8 -20 -15 -30 -15 -24 -1 8 -21 1 -51 -17 -28
-17 -55 -30 -60 -30 -6 0 -20 -17 -33 -38 -14 -20 -49 -58 -79 -84 -31 -26
-59 -59 -62 -73 -4 -14 -12 -25 -20 -25 -25 0 -87 -67 -95 -102 -4 -18 -9
-272 -10 -565 l-2 -531 3108 0 c1709 0 3133 3 3163 7 62 7 59 -5 41 131 -6 47
-13 103 -16 125 -3 22 -7 54 -9 70 -3 17 -8 53 -11 80 -3 28 -8 61 -10 75 -3
14 -8 45 -11 70 -3 25 -7 54 -9 65 -1 11 -6 47 -9 80 -4 33 -9 67 -11 75 -3 8
-7 38 -10 65 -3 28 -8 57 -10 65 -2 8 -7 47 -10 85 -3 39 -8 86 -10 105 -2 19
-7 80 -10 135 -6 105 -12 163 -20 205 -3 14 -7 39 -10 55 -3 17 -10 53 -15 80
-5 28 -12 61 -14 75 -14 76 -109 544 -121 595 -8 33 -16 71 -19 85 -2 14 -18
90 -35 170 -17 80 -33 161 -36 180 -5 32 -12 72 -21 125 -19 109 -40 198 -56
235 -19 45 -64 100 -81 100 -5 0 -77 33 -160 74 -84 40 -217 97 -297 126 -143
52 -263 100 -554 220 -171 70 -214 91 -276 133 -58 40 -140 117 -140 131 0 7
15 13 33 14 66 4 181 24 220 38 39 14 87 49 87 65 0 4 -29 7 -64 8 -114 1
-223 41 -279 100 -15 17 -43 35 -62 42 -19 7 -38 24 -45 38 l-12 26 26 -24
c22 -20 26 -22 26 -8 0 10 -11 23 -25 29 -25 11 -34 28 -15 28 5 0 7 7 4 15
-4 8 -15 15 -25 15 -12 0 -19 7 -19 19 0 11 -6 22 -12 24 -9 4 -6 11 9 24 26
22 44 145 22 158 -9 6 -11 4 -6 -7 10 -28 -4 -27 -46 3 -22 16 -45 29 -51 29
-24 0 -106 74 -106 95 0 8 -5 17 -12 21 -7 4 -8 3 -4 -4 4 -7 3 -12 -3 -12
-15 0 -26 23 -13 28 8 2 1 17 -18 38 -35 40 -38 54 -11 47 30 -8 33 12 10 56
-24 46 -31 51 -29 19 3 -36 0 -62 -6 -56 -5 6 -12 32 -13 56 -1 6 -5 12 -10
12 -5 0 -7 -10 -4 -22 4 -20 2 -19 -15 6 -26 38 -18 56 24 56 19 0 34 4 34 9
0 5 17 12 38 16 26 4 40 13 48 30 11 22 8 29 -26 67 -34 38 -38 40 -34 18 l5
-25 -11 25 c-36 81 -64 130 -74 130 -22 0 -44 53 -40 97 3 34 1 41 -11 37 -8
-4 -15 -1 -15 4 0 6 -8 12 -17 14 -13 2 -10 9 15 32 28 27 29 31 14 42 -18 13
-19 16 -21 65 -1 32 -21 32 -21 -1 0 -10 -6 -25 -13 -32 -8 -7 -13 -21 -11
-31 4 -27 -13 -29 -20 -2 -4 16 1 42 14 70 11 24 20 51 20 59 0 9 5 16 10 16
6 0 10 -5 10 -12 0 -23 17 6 23 39 6 31 6 32 -19 21 -14 -6 -23 -17 -20 -24 4
-10 -5 -13 -31 -12 -35 1 -39 -2 -70 -49 -10 -16 -13 -16 -22 -3 -17 25 3 97
23 82 30 -24 136 46 117 77 -14 23 -51 4 -52 -27 l-1 -27 -10 28 c-10 29 -10
29 -22 6 -14 -28 -52 -43 -60 -23 -5 12 0 15 20 13 6 0 21 22 40 59 11 22 -5
26 -26 7 -27 -24 -26 -1 1 26 15 15 24 18 33 9 10 -8 15 -5 19 11 8 31 24 15
19 -20 -9 -66 55 -41 110 42 33 49 36 67 8 42 -23 -21 -26 -9 -5 19 30 39 13
40 -20 1 -18 -22 -36 -37 -38 -35 -3 3 4 29 16 58 18 48 40 67 49 41 2 -6 27
14 55 45 31 33 57 54 65 51 19 -7 52 30 45 50 -4 8 -2 15 2 15 13 0 22 -30 14
-43 -4 -7 1 -6 10 2 15 12 17 11 17 -7 0 -11 3 -27 6 -36 5 -14 9 -14 27 -1
14 10 25 11 38 4 14 -7 24 -3 44 18 27 30 33 78 11 86 -11 4 -14 17 -10 44 2
21 2 32 -2 26 -9 -19 -24 -16 -17 3 3 9 6 30 7 47 2 47 22 43 36 -9 7 -26 13
-53 13 -60 0 -8 5 -14 10 -14 5 0 6 16 3 38 -4 20 -9 53 -12 72 -4 33 -4 33 7
10 6 -14 17 -38 25 -55 l15 -30 -5 33 c-3 17 -2 32 2 32 16 -1 30 -17 35 -40
4 -23 4 -23 6 5 1 25 4 28 14 15 7 -9 32 -16 67 -17 47 -2 51 -1 30 9 -60 26
-70 32 -70 47 1 13 3 13 15 -3 12 -16 26 -19 85 -17 74 2 83 -4 50 -34 -11
-10 -20 -29 -20 -43 0 -22 4 -19 32 23 18 27 31 59 30 71 -3 20 0 21 40 17 53
-6 78 -25 28 -21 -29 3 -35 0 -35 -17 0 -14 6 -19 20 -17 47 8 141 -2 159 -17
7 -6 21 -9 30 -5 10 4 18 0 22 -10 7 -19 66 -46 100 -46 16 0 28 -10 39 -30
18 -34 30 -40 22 -10 -3 13 4 32 21 51 22 27 26 42 28 113 4 93 -2 120 -22
112 -8 -3 -14 -1 -14 3 0 5 4 11 8 13 5 2 3 18 -5 36 l-13 33 -24 -28 c-14
-15 -28 -25 -32 -20 -4 4 3 18 16 32 23 25 22 47 -2 27 -12 -9 -42 -16 -62
-13 -4 0 2 10 15 21 28 23 18 34 -42 44 -29 5 -38 11 -41 28 -2 13 -16 29 -33
38 -16 8 -32 17 -35 21 -12 13 -79 49 -91 49 -8 0 -30 11 -50 24 -19 13 -51
27 -70 30 -53 8 -109 35 -109 51 0 8 -12 17 -27 21 -74 17 -199 58 -205 67 -3
6 -40 11 -82 11 -77 1 -82 4 -77 43 1 6 -3 14 -9 18 -5 3 -10 -3 -10 -14z
m-50 -25 c0 -3 -4 -8 -10 -11 -5 -3 -10 -1 -10 4 0 6 5 11 10 11 6 0 10 -2 10
-4z m-5 -346 c3 -5 -1 -10 -10 -10 -9 0 -13 5 -10 10 3 6 8 10 10 10 2 0 7 -4
10 -10z m-125 -40 c0 -5 -2 -10 -4 -10 -3 0 -8 5 -11 10 -3 6 -1 10 4 10 6 0
11 -4 11 -10z m207 -38 c-14 -17 -22 0 -12 26 5 14 7 14 15 2 5 -9 4 -20 -3
-28z m223 -49 c6 -16 15 -36 21 -47 8 -14 7 -22 -4 -33 -12 -13 -16 -7 -29 46
-16 61 -6 86 12 34z m93 -23 c28 -34 31 -43 8 -31 -11 7 -28 25 -36 41 -19 37
-19 51 1 25 8 -11 20 -27 27 -35z m-277 22 c0 -10 -6 -19 -13 -19 -8 0 -9 6
-2 19 5 10 11 18 12 18 2 0 3 -8 3 -18z m-411 -101 c-16 -16 -32 -27 -35 -24
-4 4 50 52 60 53 3 0 -8 -13 -25 -29z m958 12 c-7 -2 -19 -2 -25 0 -7 3 -2 5
12 5 14 0 19 -2 13 -5z m77 -44 c0 -4 -15 -3 -32 3 -50 16 -56 28 -9 16 22 -6
41 -14 41 -19z m-383 7 c15 -2 33 -24 33 -39 0 -5 -10 -1 -22 7 -12 9 -30 16
-39 16 -9 0 -20 7 -23 16 -5 12 -1 14 15 9 12 -4 28 -8 36 -9z m-187 -70 c0
-3 -4 -8 -10 -11 -5 -3 -10 -1 -10 4 0 6 5 11 10 11 6 0 10 -2 10 -4z m40
-190 c0 -3 -4 -8 -10 -11 -5 -3 -10 -1 -10 4 0 6 5 11 10 11 6 0 10 -2 10 -4z
m-293 -78 c-3 -7 -5 -2 -5 12 0 14 2 19 5 13 2 -7 2 -19 0 -25z m-247 -98 c-6
-11 -16 -20 -21 -20 -6 0 -9 -7 -5 -15 6 -17 -9 -21 -19 -5 -3 5 6 21 22 35
34 30 37 30 23 5z m136 -15 c-6 -19 -17 -35 -24 -35 -10 0 -10 5 -1 23 12 22
29 47 34 47 1 0 -3 -16 -9 -35z m-105 -52 c-8 -15 -10 -15 -11 -2 0 17 10 32
18 25 2 -3 -1 -13 -7 -23z m-27 -25 c3 -13 6 -35 6 -50 0 -21 -4 -25 -20 -21
-11 3 -20 0 -20 -6 0 -6 -9 -11 -21 -11 -12 0 -23 -8 -26 -20 -3 -11 -9 -20
-14 -20 -12 0 -11 17 1 25 6 3 10 16 10 28 0 30 39 65 51 46 14 -22 30 10 18
33 -6 11 -6 18 -1 18 6 0 12 -10 16 -22z m162 -13 c-21 -16 -32 -13 -21 4 3 6
14 11 23 11 15 -1 15 -2 -2 -15z m-271 -75 c-3 -5 -11 -10 -16 -10 -6 0 -7 5
-4 10 3 6 11 10 16 10 6 0 7 -4 4 -10z m-150 -60 c59 -34 145 -113 145 -134 0
-25 -55 -2 -124 53 -56 45 -70 51 -123 56 -50 5 -63 2 -85 -14 -29 -23 -44
-69 -29 -84 6 -6 35 -9 65 -8 49 1 60 -2 101 -33 l45 -35 -26 -18 c-32 -22
-74 -63 -74 -73 0 -4 19 -10 42 -13 48 -6 78 -35 78 -73 0 -13 9 -28 21 -34
11 -6 19 -19 18 -28 -4 -42 2 -51 37 -61 52 -14 77 0 63 36 -6 15 -15 33 -20
40 -12 14 -10 89 3 116 8 16 11 16 38 2 17 -9 30 -19 31 -23 5 -48 19 -67 20
-26 0 16 3 22 6 14 2 -8 11 -29 18 -45 8 -17 12 -39 10 -50 -2 -11 -4 -24 -4
-29 -1 -5 -9 -2 -19 7 -23 21 -42 22 -43 2 -1 -8 -3 -19 -4 -25 -1 -5 -3 -21
-4 -35 -1 -22 -4 -24 -20 -15 -14 7 -22 7 -26 0 -10 -16 2 -40 19 -40 19 0 30
-40 21 -72 -27 -89 -103 -75 -244 42 -69 57 -83 75 -119 150 -62 130 -100 297
-80 352 18 48 64 102 103 120 49 23 92 17 160 -22z m348 -65 c-7 -21 -13 -19
-13 6 0 11 4 18 10 14 5 -3 7 -12 3 -20z m14 -27 c-3 -8 -6 -5 -6 6 -1 11 2
17 5 13 3 -3 4 -12 1 -19z m-30 -20 c-3 -8 -6 -5 -6 6 -1 11 2 17 5 13 3 -3 4
-12 1 -19z m103 -88 c0 -5 -4 -10 -10 -10 -5 0 -10 5 -10 10 0 6 5 10 10 10 6
0 10 -4 10 -10z m-340 -94 c0 -2 -7 -7 -16 -10 -8 -3 -12 -2 -9 4 6 10 25 14
25 6z m30 -1231 c0 -5 -5 -3 -10 5 -5 8 -10 20 -10 25 0 6 5 3 10 -5 5 -8 10
-19 10 -25z m225 -295 c3 -6 -1 -7 -9 -4 -18 7 -21 14 -7 14 6 0 13 -4 16 -10z
m81 -51 c8 -14 -10 -11 -32 6 -18 13 -18 14 4 8 12 -3 25 -9 28 -14z m42 -115
c13 -38 13 -39 -19 -66 -19 -16 -43 -28 -55 -28 -21 0 -21 1 -9 58 19 84 23
92 48 83 13 -5 27 -24 35 -47z m12 -314 c-11 -11 -24 -20 -29 -20 -12 0 -17
-46 -11 -95 6 -46 1 -95 -9 -95 -4 0 -8 16 -9 35 -2 20 -6 45 -10 58 -18 51 1
111 41 130 39 19 52 12 27 -13z m-43 -272 c-3 -7 -5 -2 -5 12 0 14 2 19 5 13
2 -7 2 -19 0 -25z m-24 -335 c-8 -19 -22 -15 -18 5 2 9 4 24 5 32 1 10 4 9 9
-5 5 -11 6 -26 4 -32z m-34 -119 c-18 -47 -24 -55 -29 -39 -5 13 -2 23 6 28 8
4 14 12 14 17 0 16 21 63 26 58 2 -3 -5 -32 -17 -64z m-38 -611 c-8 -15 -10
-15 -11 -2 0 17 10 32 18 25 2 -3 -1 -13 -7 -23z m199 -652 c6 -13 6 -22 1
-26 -9 -5 -31 24 -31 39 0 14 20 4 30 -13z m-3793 -83 c-3 -8 -6 -5 -6 6 -1
11 2 17 5 13 3 -3 4 -12 1 -19z m3803 -48 c0 -15 -27 -23 -47 -16 -15 6 -15 8
-3 16 20 13 50 12 50 0z m44 -766 c9 -3 16 -12 16 -20 0 -10 -6 -11 -30 -2
-17 5 -33 14 -36 19 -6 10 26 12 50 3z m-2250 -101 c20 -118 14 -141 -30 -126
-25 9 -29 15 -28 47 1 38 31 116 45 116 4 0 10 -17 13 -37z m2162 -15 c10 -12
15 -19 9 -16 -5 3 -18 8 -28 11 -10 4 -15 11 -12 17 8 13 9 13 31 -12z"/>
<path d="M3550 5569 c0 -5 5 -7 10 -4 6 3 10 8 10 11 0 2 -4 4 -10 4 -5 0 -10
-5 -10 -11z"/>
<path d="M3169 5293 c-8 -91 17 -220 47 -254 27 -30 33 -22 13 19 -10 21 -21
72 -24 117 -3 44 -8 89 -10 100 -2 11 -4 23 -4 28 -2 15 -21 6 -22 -10z"/>
<path d="M3329 4970 c12 -11 28 -17 34 -13 12 8 -20 33 -42 33 -12 -1 -10 -6
8 -20z"/>
<path d="M2910 6308 c-29 -32 -15 -36 16 -5 15 15 22 27 16 27 -6 0 -20 -10
-32 -22z"/>
<path d="M3994 5868 c-5 -8 -2 -9 9 -5 14 5 13 1 -4 -23 -13 -17 -19 -35 -15
-46 4 -10 1 -21 -6 -25 -7 -4 -9 -11 -5 -16 4 -4 17 -2 27 5 11 7 27 12 35 12
20 0 79 30 72 36 -3 3 -19 -2 -36 -10 -37 -20 -42 -20 -35 -1 5 11 -1 15 -21
15 l-26 0 20 26 c12 15 21 31 21 35 0 13 -28 11 -36 -3z"/>
<path d="M3941 5838 c-5 -13 -7 -25 -4 -28 5 -6 33 30 33 42 0 17 -21 7 -29
-14z"/>
<path d="M4056 5823 c-6 -14 -5 -15 5 -6 7 7 10 15 7 18 -3 3 -9 -2 -12 -12z"/>
<path d="M3905 5779 c-4 -6 -5 -12 -2 -15 2 -3 7 2 10 11 7 17 1 20 -8 4z"/>
<path d="M4124 5780 c-30 -12 -39 -29 -23 -46 10 -9 18 -10 29 -3 13 9 13 11
1 16 -10 4 -8 9 9 18 27 15 14 26 -16 15z"/>
<path d="M3989 5723 c-5 -14 -8 -32 -5 -40 3 -7 1 -13 -3 -13 -5 0 -18 -3 -28
-7 -17 -6 -17 -6 0 14 29 33 7 34 -27 1 -17 -17 -31 -35 -31 -39 0 -4 -3 -10
-6 -13 -3 -3 -4 -20 -1 -37 l5 -31 18 41 c15 34 23 41 45 41 25 0 26 -1 11
-12 -10 -8 -13 -18 -9 -26 6 -9 14 -6 32 13 13 14 20 25 15 25 -4 0 2 9 15 20
13 11 27 20 31 20 12 0 39 30 39 43 0 9 -2 9 -8 1 -4 -6 -18 -14 -32 -18 -18
-5 -21 -5 -10 3 8 5 12 11 10 13 -44 29 -50 29 -61 1z"/>
<path d="M3903 5728 c-21 -28 -24 -38 -9 -32 14 5 30 33 23 41 -2 2 -9 -2 -14
-9z"/>
<path d="M4085 5669 c-11 -17 0 -20 21 -4 17 13 17 14 2 15 -9 0 -20 -5 -23
-11z"/>
<path d="M3850 5595 c0 -8 4 -15 8 -15 5 0 9 7 9 15 0 8 -4 15 -9 15 -4 0 -8
-7 -8 -15z"/>
<path d="M3802 5566 c-16 -35 -16 -36 8 -36 15 0 20 -7 20 -27 0 -24 1 -25 18
-11 9 9 23 13 30 11 6 -3 12 0 12 6 0 6 -4 11 -10 11 -5 0 -10 7 -10 15 0 8
-11 17 -24 21 -14 3 -26 13 -28 22 -2 11 -7 8 -16 -12z"/>
<path d="M3914 5579 c-3 -6 0 -15 7 -20 11 -6 11 -11 1 -21 -19 -19 -14 -26
13 -20 24 4 65 44 65 63 0 5 -11 4 -25 -1 -15 -6 -26 -6 -30 0 -8 13 -22 13
-31 -1z"/>
<path d="M3909 5473 c-17 -8 -30 -27 -38 -54 -13 -42 -10 -56 9 -44 11 7 64
105 58 109 -2 1 -15 -3 -29 -11z"/>
<path d="M4974 5364 c-16 -9 -36 -22 -45 -30 -8 -8 -21 -14 -27 -14 -7 0 -12
-4 -12 -10 0 -26 -20 -6 -26 26 l-7 36 -86 -3 c-59 -2 -98 -9 -126 -23 -22
-10 -51 -22 -65 -27 -24 -7 -24 -8 -4 -14 15 -5 20 -13 17 -26 -3 -10 -8 -19
-12 -20 -3 0 -13 -2 -21 -4 -8 -2 -42 -9 -75 -15 -33 -6 -77 -14 -98 -18 -60
-11 -43 -27 31 -28 86 -1 181 -13 207 -27 20 -11 46 -10 55 2 12 16 140 101
152 101 26 0 36 -21 31 -63 -5 -34 -3 -40 7 -30 10 9 17 7 32 -13 11 -13 17
-31 14 -39 -6 -18 -26 -20 -26 -3 0 6 -3 9 -6 6 -9 -9 16 -49 26 -43 5 3 14
23 20 44 9 35 13 38 40 36 33 -3 51 13 29 26 -41 25 -41 25 -19 62 12 21 26
37 30 37 12 0 28 53 21 70 -8 21 -23 22 -57 4z"/>
<path d="M3806 5355 c4 -8 8 -15 10 -15 2 0 4 7 4 15 0 8 -4 15 -10 15 -5 0
-7 -7 -4 -15z"/>
<path d="M4365 5310 c-22 -10 -50 -22 -62 -27 -30 -11 -16 -32 22 -35 30 -2
135 39 135 54 0 8 -34 28 -47 27 -4 0 -26 -9 -48 -19z"/>
<path d="M4579 5153 c-1 -5 -1 -12 0 -17 1 -4 -12 -6 -29 -4 -40 6 -47 -7 -17
-27 26 -16 50 -12 80 13 18 16 24 38 7 27 -5 -3 -10 -1 -10 4 0 12 -29 15 -31
4z"/>
<path d="M2881 4814 c0 -11 3 -14 6 -6 3 7 2 16 -1 19 -3 4 -6 -2 -5 -13z"/>
<path d="M4590 4766 c0 -47 20 -105 43 -125 8 -6 43 -25 77 -42 101 -49 133
-92 53 -72 -25 6 -61 5 -103 -2 -36 -6 -92 -10 -125 -9 -78 2 -77 2 -70 14 13
21 -20 9 -47 -17 -30 -28 -36 -52 -15 -54 32 -2 72 -12 139 -33 56 -19 77 -22
93 -13 18 9 19 9 6 -6 -12 -16 -8 -17 47 -17 88 0 111 -29 75 -91 -22 -38 -43
-37 -134 5 -78 36 -109 38 -81 5 9 -10 17 -34 17 -52 1 -18 4 -38 8 -44 4 -6
4 -18 1 -27 -4 -10 -1 -16 7 -17 8 0 36 -1 63 -2 27 -2 53 2 58 8 74 91 92
148 71 225 -9 33 -7 37 29 70 38 34 39 37 40 108 1 81 4 85 74 96 44 8 104 40
104 56 0 5 -6 7 -13 4 -8 -3 -31 -1 -53 4 -24 5 -68 5 -112 -1 -97 -13 -169 2
-206 43 -36 41 -46 38 -46 -14z"/>
<path d="M4501 4739 c-23 -24 -41 -47 -41 -51 0 -16 17 -7 40 20 12 15 30 35
38 45 8 9 13 20 9 23 -3 3 -24 -13 -46 -37z"/>
<path d="M2981 4354 c0 -11 3 -14 6 -6 3 7 2 16 -1 19 -3 4 -6 -2 -5 -13z"/>
<path d="M2587 4317 c-3 -8 -1 -20 4 -28 6 -10 9 -7 9 14 0 29 -5 35 -13 14z"/>
<path d="M4260 4261 c0 -13 29 -35 37 -28 7 8 -15 37 -28 37 -5 0 -9 -4 -9 -9z"/>
<path d="M2950 4236 c0 -8 5 -18 10 -21 6 -3 10 1 10 9 0 8 -4 18 -10 21 -5 3
-10 -1 -10 -9z"/>
<path d="M153 4030 c-1 -11 2 -20 8 -20 5 0 9 9 9 20 0 11 -4 20 -8 20 -4 0
-8 -9 -9 -20z"/>
<path d="M4421 4034 c0 -11 3 -14 6 -6 3 7 2 16 -1 19 -3 4 -6 -2 -5 -13z"/>
<path d="M2991 3090 c12 -22 25 -38 27 -35 5 4 -37 75 -44 75 -3 0 5 -18 17
-40z"/>
<path d="M4160 3042 c0 -12 19 -26 26 -19 2 2 -2 10 -11 17 -9 8 -15 8 -15 2z"/>
<path d="M3035 3010 c10 -11 20 -20 23 -20 3 0 -3 9 -13 20 -10 11 -20 20 -23
20 -3 0 3 -9 13 -20z"/>
<path d="M3527 2913 c-3 -5 -1 -17 4 -28 7 -17 8 -17 8 8 1 27 -4 34 -12 20z"/>
<path d="M6210 1540 c-8 -5 -10 -10 -5 -10 6 0 17 5 25 10 8 5 11 10 5 10 -5
0 -17 -5 -25 -10z"/>
<path d="M6550 686 c0 -2 8 -10 18 -17 15 -13 16 -12 3 4 -13 16 -21 21 -21
13z"/>
<path d="M6920 578 c0 -9 5 -20 10 -23 13 -8 13 5 0 25 -8 13 -10 13 -10 -2z"/>
</g>
</svg>
