<?xml version="1.0" standalone="no"?>
<!DOCTYPE svg PUBLIC "-//W3C//DTD SVG 20010904//EN"
 "http://www.w3.org/TR/2001/REC-SVG-20010904/DTD/svg10.dtd">
<style>
  g {
    fill: #ffffff;
  }
  @media (prefers-color-scheme: dark) {
      g {
        fill: #000000;
      }
    }
</style>
<svg version="1.0" xmlns="http://www.w3.org/2000/svg"
 width="1112.000000pt" height="1112.000000pt" viewBox="0 0 1112.000000 1112.000000"
 preserveAspectRatio="xMidYMid meet">

<g transform="translate(0.000000,1112.000000) scale(0.100000,-0.100000)"
fill="#ffffff" stroke="none">
<path d="M7140 10910 c0 -5 5 -10 10 -10 6 0 10 5 10 10 0 6 -4 10 -10 10 -5
0 -10 -4 -10 -10z"/>
<path d="M10995 10290 c3 -5 10 -10 16 -10 5 0 9 5 9 10 0 6 -7 10 -16 10 -8
0 -12 -4 -9 -10z"/>
<path d="M11045 10280 c3 -5 8 -10 11 -10 2 0 4 5 4 10 0 6 -5 10 -11 10 -5 0
-7 -4 -4 -10z"/>
<path d="M10497 10154 c-16 -9 -27 -18 -24 -20 7 -8 57 15 57 26 0 12 1 13
-33 -6z"/>
<path d="M1391 9614 c0 -11 3 -14 6 -6 3 7 2 16 -1 19 -3 4 -6 -2 -5 -13z"/>
<path d="M7812 8678 c5 -15 28 -23 28 -10 0 5 -7 13 -16 16 -10 4 -14 1 -12
-6z"/>
<path d="M5774 8163 c3 -10 -1 -27 -9 -37 -15 -20 -15 -20 -30 0 -8 10 -15 22
-15 27 0 16 -30 5 -48 -18 -13 -16 -30 -25 -48 -25 -65 0 -104 -12 -104 -31 0
-29 -20 -22 -33 11 -13 34 -27 40 -27 10 0 -11 -4 -20 -10 -20 -5 0 -10 5 -10
10 0 6 -13 10 -30 10 -19 0 -30 -5 -30 -14 0 -8 -8 -15 -17 -15 -44 -2 -72 -7
-78 -13 -4 -4 -17 -2 -30 4 -25 11 -111 3 -120 -12 -3 -5 0 -12 7 -16 6 -4 14
-2 16 5 3 8 9 7 19 -6 13 -17 14 -17 9 0 -3 10 0 17 7 17 20 0 37 -22 36 -44
-1 -17 -2 -18 -6 -3 -3 11 -11 16 -26 13 -12 -3 -48 -7 -81 -11 -32 -3 -68
-12 -79 -20 -12 -8 -36 -15 -53 -15 -17 0 -48 -11 -68 -25 -20 -14 -41 -25
-46 -25 -6 0 -10 -7 -10 -15 0 -17 -30 -35 -60 -35 -11 0 -36 -15 -55 -34 -19
-19 -43 -37 -54 -41 -22 -7 -151 -161 -151 -180 0 -6 -18 -28 -40 -49 -44 -41
-68 -82 -101 -173 -12 -32 -37 -75 -55 -96 -36 -39 -47 -72 -16 -44 27 25 33
21 16 -10 -7 -16 -14 -33 -14 -39 0 -6 -7 -17 -16 -25 -9 -7 -13 -21 -10 -34
3 -12 -6 -51 -19 -85 -29 -73 -29 -73 -14 -64 8 4 9 -3 4 -26 -4 -18 -8 -70
-10 -115 -1 -46 -6 -88 -10 -94 -3 -7 -1 -18 5 -26 6 -8 9 -18 6 -23 -3 -5 -1
-23 4 -41 5 -17 10 -70 11 -117 2 -60 7 -88 16 -91 9 -4 12 -16 7 -39 -3 -19
-2 -40 3 -47 6 -6 13 -28 17 -47 3 -19 17 -62 30 -95 13 -33 29 -80 36 -105 7
-25 16 -52 20 -61 5 -9 12 -33 15 -53 4 -20 11 -38 15 -41 5 -3 11 -23 15 -45
4 -22 11 -40 16 -40 6 0 7 -4 4 -10 -3 -5 0 -24 8 -42 17 -39 38 -105 68 -213
12 -44 27 -86 33 -94 19 -24 20 -270 2 -399 -25 -181 -24 -178 -51 -192 -14
-8 -39 -34 -56 -59 -28 -42 -30 -51 -24 -103 8 -80 21 -112 73 -191 91 -137
195 -211 555 -395 138 -71 182 -88 84 -32 -29 16 -64 42 -78 56 l-24 27 45 -7
c25 -4 49 -11 54 -17 6 -5 17 -9 26 -9 19 0 135 -58 177 -89 17 -13 41 -21 54
-19 22 3 24 8 29 76 3 40 1 77 -3 81 -4 4 2 20 14 35 21 26 21 27 3 47 -18 21
-18 21 11 17 25 -2 35 -13 62 -63 18 -33 38 -78 44 -100 10 -37 9 -41 -14 -61
-14 -12 -31 -24 -38 -26 -7 -2 -10 -9 -8 -16 2 -7 19 0 44 19 22 16 87 64 145
107 155 113 288 250 331 339 23 48 40 72 52 72 9 1 17 -3 17 -7 0 -5 9 -71 19
-148 21 -145 20 -193 -8 -454 -6 -54 -8 -167 -4 -262 5 -129 3 -168 -6 -168
-7 0 -10 -4 -7 -9 3 -5 16 -7 27 -4 21 6 21 5 14 -123 -7 -136 -25 -240 -55
-314 -10 -25 -35 -103 -56 -175 -42 -144 -130 -395 -144 -409 -5 -5 -16 16
-25 50 -10 33 -32 111 -50 174 -19 63 -46 164 -60 223 -15 60 -45 152 -67 205
-75 180 -80 201 -73 267 3 33 21 98 38 145 27 73 36 85 57 88 14 2 35 8 47 14
25 12 109 4 129 -13 7 -6 18 -9 23 -7 15 5 -186 183 -293 258 -94 67 -133 85
-123 58 2 -7 0 -22 -6 -33 -6 -11 -11 -38 -11 -60 l-1 -40 -65 -7 c-36 -3 -84
-2 -107 4 -42 10 -42 10 -125 -56 -119 -94 -259 -229 -228 -219 35 11 181 5
208 -9 12 -6 22 -17 22 -23 0 -7 7 -18 16 -26 13 -10 17 -10 24 1 7 12 12 11
29 -4 12 -11 21 -25 21 -33 0 -7 6 -13 14 -13 8 0 17 -8 20 -17 3 -10 19 -27
35 -37 l29 -20 -5 -130 c-3 -92 0 -162 11 -233 14 -92 14 -108 0 -170 -12 -50
-17 -156 -21 -411 -3 -188 -10 -342 -14 -342 -5 0 -9 4 -9 8 0 5 -10 19 -22
32 -46 49 -360 605 -512 905 -203 401 -265 540 -287 648 -11 54 -17 102 -14
107 3 5 1 17 -5 27 -20 32 -61 206 -70 293 -4 47 -16 130 -25 185 -23 134 -24
343 -2 410 9 27 14 51 12 54 -8 7 -56 -42 -72 -74 -30 -57 -168 -208 -238
-260 -22 -16 -53 -41 -70 -55 -16 -15 -115 -62 -220 -105 -104 -43 -264 -114
-355 -158 -274 -131 -417 -192 -670 -286 -178 -65 -263 -106 -287 -139 -31
-42 -51 -118 -63 -235 -12 -124 -45 -237 -96 -333 -47 -88 -159 -345 -229
-524 -31 -80 -64 -165 -75 -190 -31 -76 -50 -165 -51 -241 -1 -89 -10 -124
-31 -124 -21 0 -48 -24 -48 -42 0 -9 -6 -13 -15 -9 -10 3 -15 -1 -15 -11 0
-13 -9 -15 -60 -10 -33 4 -60 5 -60 2 0 -2 12 -11 28 -19 l27 -15 -26 -1 c-33
0 -139 -55 -158 -81 -7 -10 -22 -19 -32 -19 -11 0 -19 -4 -19 -10 0 -5 -14
-13 -32 -18 -20 -5 -37 -19 -47 -38 -9 -17 -33 -39 -56 -50 -22 -10 -48 -27
-57 -37 -10 -9 -27 -17 -39 -17 -12 0 -23 -8 -26 -20 -3 -11 -9 -20 -14 -20
-5 0 -9 -6 -9 -14 0 -7 -11 -21 -25 -30 -14 -9 -25 -23 -25 -31 0 -8 -5 -15
-11 -15 -6 0 -27 -16 -46 -35 -19 -19 -39 -32 -44 -29 -5 3 -9 -4 -9 -16 0
-33 -18 -60 -40 -60 -11 0 -20 6 -21 13 0 6 -4 2 -10 -11 -10 -26 -79 -115
-93 -121 -22 -9 -112 -116 -122 -144 -6 -18 -25 -55 -41 -83 -17 -28 -41 -80
-53 -115 -12 -35 -28 -77 -35 -94 -63 -142 -85 -404 -43 -495 11 -24 18 -77
23 -165 3 -72 13 -151 21 -177 l16 -48 259 0 c171 0 258 3 254 10 -3 6 -1 10
4 10 6 0 11 -4 11 -10 0 -7 1227 -10 3660 -10 l3660 0 0 21 c0 12 -7 67 -15
123 -8 55 -24 177 -35 269 -11 93 -25 191 -31 220 -28 151 -99 741 -104 877
-6 132 -16 202 -66 465 -33 171 -69 353 -81 405 -11 52 -27 129 -34 170 -8 41
-26 125 -39 185 -67 306 -84 384 -90 425 -7 46 -43 248 -71 395 -26 135 -81
213 -167 236 -23 6 -49 17 -57 23 -37 32 -283 144 -385 176 -22 7 -44 16 -50
20 -5 4 -26 12 -45 18 -65 19 -174 61 -360 137 -102 42 -261 108 -354 146 -93
38 -179 76 -190 84 -12 9 -50 35 -86 59 -62 41 -160 135 -160 154 0 5 44 12
98 15 149 8 262 41 299 87 24 30 13 35 -75 34 -56 0 -95 4 -109 13 -12 7 -35
13 -50 14 -15 0 -41 9 -58 20 -16 10 -39 23 -50 28 -11 5 -29 18 -39 30 -11
11 -27 21 -37 21 -10 0 -22 8 -28 18 -5 9 -27 26 -48 37 -28 15 -38 27 -38 45
0 19 -9 29 -33 39 -27 12 -32 20 -32 47 0 18 -4 36 -10 39 -17 10 -11 44 9 55
11 5 25 26 32 47 11 34 10 38 -12 55 -13 10 -28 23 -34 28 -5 6 -20 20 -32 32
-12 12 -20 25 -17 30 3 4 -1 8 -9 8 -28 0 -113 52 -160 98 -44 42 -77 98 -106
174 -6 17 -25 35 -48 45 -31 15 -39 25 -46 58 -15 74 10 105 84 105 17 0 39 5
50 11 18 9 20 17 14 62 -9 68 -48 152 -79 172 -33 22 -44 58 -39 135 3 46 1
61 -6 50 -9 -12 -11 -12 -17 3 -4 12 -13 16 -25 12 -13 -4 -19 -1 -19 9 0 9 7
16 15 16 18 0 21 46 3 53 -8 3 -6 6 5 6 19 1 23 26 7 36 -7 4 -9 25 -5 53 6
44 5 46 -9 28 -9 -11 -16 -32 -16 -48 0 -18 -5 -28 -15 -28 -19 0 -21 -56 -2
-63 7 -3 5 -6 -5 -6 -15 -1 -23 11 -16 22 1 1 -4 12 -10 24 -13 23 2 83 20 83
6 0 8 7 5 14 -6 15 17 71 32 80 5 3 6 -6 3 -19 -2 -15 0 -25 7 -25 6 0 11 10
12 23 1 42 8 61 25 74 14 10 15 13 3 13 -8 0 -21 -6 -27 -12 -7 -7 -18 -13
-25 -13 -7 0 -11 -7 -9 -16 2 -16 -11 -20 -64 -20 -25 1 -32 -5 -42 -33 -7
-19 -20 -40 -30 -47 -9 -7 -14 -10 -10 -5 4 5 0 15 -8 23 -8 9 -12 23 -9 32 4
9 9 28 12 44 3 15 12 27 20 27 10 0 14 -7 10 -20 -3 -11 -1 -20 4 -20 5 0 9 6
9 14 0 8 15 17 35 20 19 4 35 12 35 18 0 5 -6 8 -14 5 -10 -4 -12 0 -9 14 3
10 0 25 -6 32 -6 8 -9 17 -6 21 3 3 0 2 -7 -3 -8 -8 -8 -14 1 -25 8 -10 9 -16
1 -21 -5 -3 -10 -1 -10 4 0 6 -5 11 -11 11 -5 0 -8 -4 -5 -9 3 -5 -8 -14 -24
-20 -28 -9 -30 -8 -30 15 0 15 6 24 16 24 8 0 12 -4 9 -10 -3 -5 -3 -10 0 -10
3 0 11 14 16 30 6 17 15 30 20 30 4 0 6 7 3 15 -5 11 -2 13 10 9 12 -5 15 -2
10 10 -8 22 -13 20 -46 -11 -22 -21 -28 -23 -28 -10 0 10 9 25 20 34 11 10 20
23 20 29 0 18 38 5 43 -15 3 -9 5 -4 6 12 1 25 9 31 28 25 12 -5 10 -39 -3
-53 -11 -11 -11 -14 2 -19 23 -9 36 -7 29 4 -12 20 5 48 25 43 23 -6 27 -23 5
-23 -8 0 -15 -7 -15 -15 0 -8 2 -15 5 -15 12 0 85 79 85 92 0 8 9 23 20 33 11
10 20 28 20 39 -1 19 -3 18 -16 -6 -20 -38 -39 -36 -19 2 8 16 15 35 15 42 -1
16 -39 -32 -40 -49 0 -7 -5 -13 -11 -13 -7 0 -18 -8 -25 -17 -21 -30 -24 -10
-4 32 11 22 22 55 26 72 3 18 10 31 14 28 4 -3 16 14 26 38 18 42 18 42 22 12
2 -18 -2 -33 -11 -40 -9 -6 -12 -16 -8 -24 6 -8 18 -1 42 26 19 21 39 39 44
41 6 2 16 14 23 28 15 28 18 29 54 10 15 -8 30 -11 33 -6 3 5 13 6 22 3 11 -4
14 -3 9 5 -4 7 -17 10 -32 6 -14 -4 -24 -2 -24 5 0 6 5 11 11 11 5 0 7 5 4 10
-3 6 -1 10 5 10 8 0 10 9 7 23 -4 12 -2 29 3 37 8 13 10 12 10 -2 0 -10 5 -18
11 -18 7 0 8 -12 4 -32 -5 -30 -4 -31 8 -15 21 26 30 21 24 -13 -6 -30 6 -42
17 -17 3 6 4 -1 1 -18 -5 -29 -5 -30 12 -10 12 14 31 20 58 20 32 0 40 4 39
18 -1 10 5 17 17 17 26 0 30 12 18 53 l-10 37 -24 -26 c-14 -15 -25 -22 -25
-16 0 6 6 15 14 19 7 4 16 34 20 66 4 39 3 56 -4 52 -5 -3 -10 -18 -11 -33 l0
-27 -10 24 c-6 16 -6 28 2 37 6 7 8 18 4 24 -9 14 4 70 16 70 5 0 12 -8 15
-17 4 -10 13 -34 22 -53 8 -19 15 -50 14 -70 -1 -29 1 -32 9 -17 8 13 7 33 0
65 -13 59 -17 119 -9 127 3 4 9 -9 13 -27 4 -18 12 -48 18 -66 9 -27 13 -30
18 -15 4 10 2 27 -3 37 -10 17 -8 17 19 -2 17 -12 33 -18 37 -14 4 4 14 -2 22
-12 13 -18 14 -18 14 -2 0 10 5 14 11 11 19 -13 119 -33 119 -24 0 4 -13 10
-30 14 -36 8 -50 25 -21 25 12 0 21 3 21 8 0 12 113 7 118 -6 2 -7 -1 -12 -7
-12 -6 0 -8 -7 -5 -15 4 -11 -1 -15 -17 -15 -18 0 -20 -3 -10 -9 7 -5 9 -10 3
-12 -14 -6 -26 -49 -13 -49 6 0 11 7 11 15 0 8 4 15 9 15 5 0 12 8 15 18 13
34 33 62 41 54 4 -4 5 6 1 22 -5 18 -3 32 4 36 14 9 91 -7 105 -21 13 -13 -31
-12 -56 1 -14 8 -19 7 -19 -2 0 -7 -3 -23 -6 -34 -5 -19 -2 -21 23 -16 15 2
34 9 41 15 10 8 16 7 21 -2 4 -7 19 -11 32 -10 50 4 88 -1 103 -16 18 -18 33
-19 39 -2 3 8 10 5 21 -10 25 -33 104 -74 132 -67 19 5 25 0 38 -30 18 -44 34
-47 28 -6 -3 23 2 35 27 57 32 30 35 42 27 125 -3 26 0 50 5 53 18 12 -2 115
-24 115 -4 0 -5 -4 -2 -10 3 -5 3 -16 -2 -22 -5 -8 -10 8 -13 41 -3 31 -10 56
-17 59 -7 2 -13 -3 -13 -12 0 -22 -48 -52 -61 -39 -8 8 -1 16 20 29 21 13 31
26 31 43 0 22 -1 23 -12 8 -16 -22 -71 -38 -89 -26 -12 7 -11 9 1 9 8 0 23 12
33 25 l17 24 -37 10 c-21 5 -53 13 -72 16 -30 6 -33 9 -18 19 14 11 13 15 -15
39 -16 15 -36 27 -43 27 -7 0 -18 7 -26 16 -17 21 -103 64 -127 64 -11 0 -25
7 -32 15 -19 23 -70 45 -106 45 -18 0 -36 4 -39 10 -3 5 -24 14 -46 20 -33 9
-39 15 -34 30 5 16 0 20 -32 25 -21 3 -69 17 -108 30 -38 13 -87 27 -108 30
-30 6 -35 10 -26 21 10 12 -1 14 -67 16 -44 1 -91 1 -106 0 -26 -2 -28 0 -28
38 0 22 -5 40 -11 40 -6 0 -8 -8 -5 -17z m-64 -38 c0 -8 -4 -15 -10 -15 -5 0
-10 7 -10 15 0 8 5 15 10 15 6 0 10 -7 10 -15z m-130 -396 c0 -5 -4 -9 -10 -9
-5 0 -10 7 -10 16 0 8 5 12 10 9 6 -3 10 -10 10 -16z m425 11 c3 -5 1 -10 -4
-10 -6 0 -11 5 -11 10 0 6 2 10 4 10 3 0 8 -4 11 -10z m-295 -30 c5 0 7 -7 4
-15 -5 -12 -8 -12 -20 0 -8 8 -11 21 -7 32 7 17 8 17 11 1 2 -10 7 -18 12 -18z
m220 -16 c0 -2 -7 -4 -15 -4 -8 0 -15 4 -15 10 0 5 7 7 15 4 8 -4 15 -8 15
-10z m-375 -34 c-3 -5 -10 -10 -16 -10 -5 0 -9 5 -9 10 0 6 7 10 16 10 8 0 12
-4 9 -10z m246 -48 c-14 -11 -16 -10 -19 8 -2 12 2 28 10 37 11 14 13 13 19
-8 4 -16 1 -28 -10 -37z m139 8 c0 -5 -4 -10 -10 -10 -5 0 -10 5 -10 10 0 6 5
10 10 10 6 0 10 -4 10 -10z m82 -14 c7 4 8 2 4 -5 -9 -13 -26 -5 -25 12 0 9 2
8 6 -1 2 -6 10 -9 15 -6z m78 4 c0 -5 -5 -10 -11 -10 -5 0 -7 5 -4 10 3 6 8
10 11 10 2 0 4 -4 4 -10z m-375 -10 c3 -5 1 -10 -4 -10 -6 0 -11 5 -11 10 0 6
2 10 4 10 3 0 8 -4 11 -10z m135 6 c0 -3 -4 -8 -10 -11 -5 -3 -10 -1 -10 4 0
6 5 11 10 11 6 0 10 -2 10 -4z m291 -20 c-9 -11 -8 -15 4 -20 8 -3 15 -9 14
-13 -1 -4 -1 -15 0 -23 1 -13 2 -13 11 0 6 9 10 10 10 3 0 -6 7 -19 16 -27 8
-9 12 -21 8 -27 -12 -20 -84 71 -84 107 0 8 7 14 16 14 13 0 14 -3 5 -14z
m-77 -12 c3 -9 4 -20 0 -25 -3 -5 -1 -9 5 -9 6 0 8 -7 5 -15 -4 -8 1 -17 10
-21 19 -7 21 -25 4 -42 -16 -16 -48 38 -48 82 0 19 -6 37 -12 39 -7 3 -3 6 8
6 12 1 25 -6 28 -15z m-238 -49 c-13 -13 -15 -13 -19 3 -2 9 4 25 12 36 16 18
16 18 19 -3 2 -11 -3 -28 -12 -36z m699 -45 c3 -5 -3 -10 -14 -10 -12 0 -21 5
-21 10 0 6 6 10 14 10 8 0 18 -4 21 -10z m-1140 -10 c3 -5 1 -10 -4 -10 -6 0
-30 -17 -53 -37 -46 -42 -43 -30 6 22 33 37 41 40 51 25z m918 3 c-7 -2 -21
-2 -30 0 -10 3 -4 5 12 5 17 0 24 -2 18 -5z m207 -28 c0 -4 -23 -2 -48 4 -2 1
0 6 3 11 6 10 45 -4 45 -15z m40 5 c-8 -5 -17 -7 -19 -4 -3 3 1 9 9 14 8 5 17
7 19 4 3 -3 -1 -9 -9 -14z m-460 -35 c7 -9 10 -18 7 -21 -10 -11 -37 5 -37 21
0 19 14 19 30 0z m155 5 c3 -5 2 -10 -4 -10 -5 0 -13 5 -16 10 -3 6 -2 10 4
10 5 0 13 -4 16 -10z m315 -2 c0 -5 7 -8 15 -8 8 0 15 -4 15 -10 0 -13 -7 -12
-52 3 -51 18 -54 24 -13 23 19 -1 35 -4 35 -8z m-385 -40 c-3 7 0 12 8 12 8 0
17 -8 21 -17 3 -10 9 -24 12 -31 5 -12 2 -12 -17 -1 -13 7 -30 14 -38 15 -8 2
-18 9 -22 16 -7 10 -9 10 -9 -2 0 -13 -1 -13 -10 0 -14 21 -12 28 8 33 9 2 25
-6 35 -17 10 -12 16 -15 12 -8z m-315 -65 c-11 -17 -11 -17 -6 0 3 10 7 33 8
50 l1 32 4 -32 c2 -18 -1 -41 -7 -50z m390 57 c0 -5 -4 -10 -9 -10 -6 0 -13 5
-16 10 -3 6 1 10 9 10 9 0 16 -4 16 -10z m-412 -45 c-2 -15 -6 -21 -11 -16 -6
6 -7 17 -4 25 9 24 17 19 15 -9z m89 3 c-3 -8 -6 -5 -6 6 -1 11 2 17 5 13 3
-3 4 -12 1 -19z m-31 -25 c-11 -11 -17 4 -9 23 7 18 8 18 11 1 2 -10 1 -21 -2
-24z m-222 -197 c-6 -15 -24 -23 -24 -11 0 8 24 34 28 30 1 -1 0 -10 -4 -19z
m268 -6 c3 -19 0 -30 -7 -30 -7 0 -10 11 -7 30 2 17 5 30 7 30 2 0 5 -13 7
-30z m-182 16 c0 -3 -4 -8 -10 -11 -5 -3 -10 -1 -10 4 0 6 5 11 10 11 6 0 10
-2 10 -4z m-200 -116 c0 -5 -2 -10 -4 -10 -3 0 -8 5 -11 10 -3 6 -1 10 4 10 6
0 11 -4 11 -10z m-30 -50 c0 -5 -4 -10 -10 -10 -5 0 -10 5 -10 10 0 6 5 10 10
10 6 0 10 -4 10 -10z m-216 -65 c-4 -8 -9 -15 -13 -15 -3 0 -15 -7 -25 -15
-15 -11 -16 -17 -7 -28 9 -11 8 -17 -4 -27 -10 -9 -15 -9 -15 -1 0 6 5 11 10
11 6 0 5 8 -2 21 -11 18 -10 23 15 45 32 27 49 31 41 9z m163 0 c0 -8 -4 -15
-9 -15 -21 0 -5 -37 22 -48 17 -8 28 -18 24 -23 -3 -5 -12 -2 -20 6 -9 8 -19
13 -24 10 -5 -3 -11 -1 -15 4 -3 6 -12 8 -19 5 -22 -9 -11 33 15 55 13 11 24
20 25 21 0 0 1 -7 1 -15z m-267 -23 c0 -5 -7 -17 -15 -28 -14 -18 -14 -17 -4
9 12 27 19 34 19 19z m150 -31 c0 -5 -9 -19 -20 -32 -20 -24 -20 -22 -5 26 5
16 25 21 25 6z m-259 -34 c-10 -9 -11 -8 -5 6 3 10 9 15 12 12 3 -3 0 -11 -7
-18z m-34 -33 c-3 -3 -12 -4 -19 -1 -8 3 -5 6 6 6 11 1 17 -2 13 -5z m245 -25
c-4 -39 -10 -49 -32 -49 -11 0 -20 -4 -20 -10 0 -5 -5 -10 -11 -10 -6 0 -17
-7 -25 -15 -9 -8 -13 -15 -9 -15 4 0 0 -7 -9 -15 -22 -23 -29 -18 -22 15 6 34
-1 38 -20 13 -13 -17 -13 -17 -14 0 0 16 5 19 40 21 9 1 15 11 15 26 0 20 5
25 22 23 13 -2 22 2 20 9 -1 7 7 14 17 16 14 3 17 0 13 -12 -4 -9 -2 -16 2
-16 12 0 22 30 15 42 -4 6 -1 8 7 6 8 -3 13 -16 11 -29z m8 -59 c0 -5 -5 -10
-11 -10 -5 0 -7 5 -4 10 3 6 8 10 11 10 2 0 4 -4 4 -10z m-357 -69 c110 -51
201 -138 222 -211 6 -22 5 -23 -6 -9 -8 9 -36 24 -64 34 -29 11 -68 37 -94 63
-63 63 -78 70 -156 77 -70 7 -71 7 -103 -26 -35 -35 -42 -78 -17 -99 9 -8 34
-10 77 -5 67 6 78 2 96 -32 7 -12 25 -24 42 -28 46 -10 36 -35 -23 -60 -21 -9
-43 -28 -52 -45 -20 -39 -20 -40 15 -40 17 0 48 -6 70 -12 38 -12 40 -15 40
-56 0 -36 4 -44 25 -52 22 -8 25 -15 25 -59 l0 -49 50 -12 c27 -6 54 -9 60 -5
18 11 11 67 -11 91 -20 21 -21 29 -13 91 10 77 25 88 73 54 16 -12 36 -21 45
-21 9 0 21 -12 27 -27 5 -16 18 -45 29 -66 14 -29 16 -46 9 -69 -13 -45 -18
-46 -48 -10 -36 42 -51 41 -52 -5 -1 -21 -4 -51 -8 -68 l-6 -30 -17 24 c-19
27 -22 27 -32 -6 -6 -18 -2 -25 17 -32 60 -23 43 -134 -25 -162 -49 -20 -112
11 -245 121 -121 99 -187 226 -228 438 -26 128 -17 183 41 250 43 50 96 81
142 82 18 0 60 -13 95 -29z m331 -16 c4 -10 -1 -15 -16 -15 -17 0 -18 2 -8 15
7 8 14 15 15 15 2 0 5 -7 9 -15z m-94 -9 c0 -3 -4 -8 -10 -11 -5 -3 -10 -1
-10 4 0 6 5 11 10 11 6 0 10 -2 10 -4z m206 -106 c-7 -25 -16 -38 -20 -32 -4
6 -2 21 4 32 6 11 8 25 5 31 -4 5 -4 18 0 27 6 15 7 15 15 1 6 -9 4 -32 -4
-59z m37 28 c-6 -37 -23 -62 -23 -36 0 20 17 68 25 68 2 0 2 -15 -2 -32z m-23
-82 c0 -3 -4 -8 -10 -11 -5 -3 -10 -1 -10 4 0 6 5 11 10 11 6 0 10 -2 10 -4z
m-320 -38 c0 -18 -2 -20 -9 -8 -6 8 -7 18 -5 22 9 14 14 9 14 -14z m-14 -175
c-10 -10 -19 5 -10 18 6 11 8 11 12 0 2 -7 1 -15 -2 -18z m64 -1444 c10 -18 9
-20 -7 -17 -10 2 -19 11 -21 21 -5 24 15 21 28 -4z m355 -809 c-3 -5 -10 -10
-16 -10 -5 0 -9 5 -9 10 0 6 7 10 16 10 8 0 12 -4 9 -10z m87 -121 c-12 -5
-22 -16 -22 -25 0 -11 -6 -15 -20 -11 -14 4 -20 0 -21 -11 0 -10 -2 -33 -5
-52 -2 -19 0 -46 6 -60 6 -15 7 -58 2 -110 l-8 -85 -8 67 c-4 37 -5 72 -1 77
3 6 0 20 -6 33 -7 13 -16 31 -21 42 -6 11 -5 36 3 68 10 44 16 52 52 68 22 10
47 16 55 12 12 -4 10 -7 -6 -13z m-93 -711 c0 -13 -4 -32 -9 -43 -7 -15 -9
-10 -9 23 -1 23 4 42 9 42 6 0 10 -10 9 -22z m-24 -122 c-4 -25 -11 -46 -16
-46 -12 0 -11 13 3 60 16 50 21 44 13 -14z m-15 -61 c0 -2 -9 -19 -20 -37 -19
-32 -20 -32 -20 -7 0 14 5 30 12 37 12 12 28 16 28 7z m-40 -713 c0 -5 -7 -17
-15 -28 -15 -19 -20 -8 -9 20 6 17 24 22 24 8z m-13 -214 c-3 -8 -6 -5 -6 6
-1 11 2 17 5 13 3 -3 4 -12 1 -19z m247 -588 c17 -35 5 -40 -32 -14 -22 15
-22 17 -5 30 10 7 19 14 20 14 1 0 8 -13 17 -30z m-4498 -104 c-2 -6 -8 0 -14
14 -5 14 -7 29 -4 34 7 12 24 -33 18 -48z m-56 3 c0 -5 -4 -9 -10 -9 -5 0 -10
7 -10 16 0 8 5 12 10 9 6 -3 10 -10 10 -16z m32 -21 c-9 -9 -12 -7 -12 12 0
19 3 21 12 12 9 -9 9 -15 0 -24z m4528 -33 c0 -17 -36 -38 -50 -30 -17 11 -11
32 13 42 25 12 37 8 37 -12z m73 -935 c8 -29 -3 -30 -53 -4 l-45 23 46 1 c38
0 48 -4 52 -20z m-2708 -202 c7 -49 5 -59 -9 -64 -9 -3 -24 -3 -33 2 -10 4
-24 6 -30 5 -8 -1 -14 11 -15 31 -2 61 3 82 35 132 l32 49 6 -49 c3 -27 10
-75 14 -106z m2583 81 l27 -21 -30 4 c-19 2 -31 9 -33 21 -4 22 4 22 36 -4z"/>
<path d="M5240 6699 c0 -5 5 -7 10 -4 6 3 10 8 10 11 0 2 -4 4 -10 4 -5 0 -10
-5 -10 -11z"/>
<path d="M4785 6283 c6 -138 32 -225 71 -240 24 -9 25 2 2 27 -18 19 -24 43
-32 122 -6 54 -14 98 -18 98 -4 0 -8 13 -8 29 0 17 -4 32 -9 36 -6 3 -8 -27
-6 -72z"/>
<path d="M4950 6001 c0 -13 40 -41 58 -41 8 0 12 5 10 12 -5 15 -68 42 -68 29z"/>
<path d="M1550 7991 c0 -5 5 -13 10 -16 6 -3 10 -2 10 4 0 5 -4 13 -10 16 -5
3 -10 2 -10 -4z"/>
<path d="M4482 7599 c-28 -28 -40 -49 -28 -49 10 0 67 63 64 72 -2 5 -18 -5
-36 -23z"/>
<path d="M6328 7333 c7 -3 16 -2 19 1 4 3 -2 6 -13 5 -11 0 -14 -3 -6 -6z"/>
<path d="M6151 7254 c0 -11 3 -14 6 -6 3 7 2 16 -1 19 -3 4 -6 -2 -5 -13z"/>
<path d="M6310 7195 c-8 -9 -8 -15 -2 -15 12 0 26 19 19 26 -2 2 -10 -2 -17
-11z"/>
<path d="M5724 7042 c-15 -10 -24 -64 -10 -59 6 2 11 11 11 21 0 9 6 21 14 25
7 5 9 11 4 14 -5 3 -14 3 -19 -1z"/>
<path d="M5790 7035 c-14 -8 -21 -14 -17 -15 5 0 1 -7 -7 -16 -24 -23 -20 -32
20 -49 49 -20 51 -19 14 11 l-31 27 27 28 c31 32 30 35 -6 14z"/>
<path d="M5850 7010 c0 -5 5 -10 10 -10 6 0 10 5 10 10 0 6 -4 10 -10 10 -5 0
-10 -4 -10 -10z"/>
<path d="M5800 6991 c0 -5 5 -13 10 -16 6 -3 10 -2 10 4 0 5 -4 13 -10 16 -5
3 -10 2 -10 -4z"/>
<path d="M5668 6953 c7 -3 16 -2 19 1 4 3 -2 6 -13 5 -11 0 -14 -3 -6 -6z"/>
<path d="M5853 6953 c9 -2 23 -2 30 0 6 3 -1 5 -18 5 -16 0 -22 -2 -12 -5z"/>
<path d="M5950 6949 c0 -5 5 -7 10 -4 6 3 10 8 10 11 0 2 -4 4 -10 4 -5 0 -10
-5 -10 -11z"/>
<path d="M5905 6936 c-20 -15 -13 -36 13 -36 14 0 14 2 3 9 -11 7 -10 10 4 18
10 6 13 13 8 16 -6 4 -18 0 -28 -7z"/>
<path d="M5741 6918 c0 -13 3 -17 6 -10 2 6 13 12 24 12 10 0 19 5 19 10 0 6
-11 10 -25 10 -19 0 -25 -5 -24 -22z"/>
<path d="M5664 6896 c-6 -7 -15 -23 -19 -37 -7 -22 -6 -23 9 -10 22 19 38 49
29 54 -5 3 -13 -1 -19 -7z"/>
<path d="M5767 6891 c-3 -9 -8 -24 -12 -33 -5 -13 -2 -15 14 -11 17 4 20 2 15
-11 -3 -9 -14 -16 -23 -16 -9 0 -22 -5 -29 -12 -20 -20 -26 1 -7 22 10 11 15
23 12 26 -7 7 -61 -33 -63 -47 -1 -5 -2 -16 -3 -25 0 -8 -5 -12 -11 -9 -6 4
-10 -8 -10 -29 0 -20 2 -36 5 -36 3 0 12 18 21 40 17 43 30 51 37 23 4 -17 5
-17 6 0 1 10 9 17 21 17 12 0 20 -7 20 -17 0 -14 -2 -15 -9 -5 -6 10 -10 7
-15 -13 -9 -35 -6 -37 20 -17 50 41 74 154 35 165 -12 3 -21 -1 -24 -12z m33
-11 c0 -5 -2 -10 -4 -10 -3 0 -8 5 -11 10 -3 6 -1 10 4 10 6 0 11 -4 11 -10z"/>
<path d="M5826 6892 c-3 -5 1 -9 9 -9 8 0 12 4 9 9 -3 4 -7 8 -9 8 -2 0 -6 -4
-9 -8z"/>
<path d="M5890 6820 c0 -5 5 -10 10 -10 6 0 10 5 10 10 0 6 -4 10 -10 10 -5 0
-10 -4 -10 -10z"/>
<path d="M5600 6730 c0 -11 5 -20 10 -20 6 0 10 9 10 20 0 11 -4 20 -10 20 -5
0 -10 -9 -10 -20z"/>
<path d="M5541 6689 c-14 -41 -14 -39 9 -39 11 0 20 5 20 12 0 9 3 9 12 0 8
-8 9 -21 1 -47 -6 -19 -8 -35 -4 -35 12 0 41 69 41 97 0 24 -1 25 -13 9 -17
-23 -51 -11 -44 15 8 32 -10 21 -22 -12z"/>
<path d="M5683 6705 c-17 -19 -16 -28 2 -21 10 4 15 -1 15 -14 0 -14 -7 -20
-21 -20 -11 0 -18 -4 -14 -10 3 -6 15 -6 29 0 13 5 27 6 30 3 3 -4 6 -1 6 6 0
8 7 11 15 7 10 -3 15 1 15 12 0 10 5 23 12 30 6 6 8 15 4 19 -4 5 -13 0 -21
-10 -12 -17 -45 -14 -45 4 0 13 -13 10 -27 -6z"/>
<path d="M5450 6685 c-14 -8 -19 -14 -12 -15 6 0 12 -9 12 -19 0 -11 4 -22 9
-25 13 -8 49 26 53 49 4 25 -27 30 -62 10z"/>
<path d="M5694 6596 c-3 -9 -17 -16 -30 -16 -16 0 -24 -6 -24 -18 0 -10 -5
-23 -12 -30 -9 -9 -8 -12 7 -12 18 0 18 0 0 -14 -18 -13 -16 -46 3 -46 10 0
52 81 52 102 0 8 5 19 12 26 6 6 9 15 5 18 -4 4 -9 -1 -13 -10z"/>
<path d="M5595 6540 c3 -5 8 -10 11 -10 2 0 4 5 4 10 0 6 -5 10 -11 10 -5 0
-7 -4 -4 -10z"/>
<path d="M6970 6460 c-19 -5 -48 -23 -65 -42 -17 -18 -40 -38 -51 -45 -19 -10
-22 -8 -34 28 -8 22 -18 43 -24 47 -21 14 -180 10 -203 -4 -12 -8 -29 -14 -37
-14 -7 0 -16 -6 -19 -14 -3 -8 -21 -17 -39 -19 -30 -4 -31 -5 -10 -12 22 -7
31 -25 11 -25 -6 0 -8 -8 -4 -19 5 -16 -2 -19 -47 -25 -29 -4 -99 -16 -156
-26 -57 -11 -106 -20 -110 -20 -4 0 2 -7 12 -15 23 -17 98 -20 127 -5 13 8 32
7 62 -1 23 -6 65 -13 92 -16 28 -3 54 -9 59 -14 6 -5 18 -9 27 -9 19 0 110 58
149 95 14 13 45 28 69 34 l43 9 -6 -57 c-7 -61 -1 -78 21 -59 11 9 15 7 19
-10 4 -11 12 -23 20 -26 19 -7 18 -42 -1 -50 -8 -3 -15 -1 -15 4 0 6 -4 10
-10 10 -12 0 3 -43 18 -48 5 -1 13 6 17 17 3 12 9 21 13 21 4 0 7 15 7 33 0
29 3 32 33 35 18 2 40 -2 48 -9 11 -9 14 -8 14 10 0 11 -4 21 -9 21 -4 0 -21
10 -36 22 -23 17 -25 23 -14 32 8 6 20 23 26 39 7 15 19 27 27 27 9 0 20 16
26 39 10 37 5 72 -9 70 -3 -1 -22 -5 -41 -9z m-480 -160 c0 -5 -15 -10 -32 -9
-31 1 -32 1 -8 9 35 11 40 11 40 0z"/>
<path d="M5546 6451 c-4 -7 -5 -15 -2 -18 9 -9 19 4 14 18 -4 11 -6 11 -12 0z"/>
<path d="M5631 6414 c0 -11 3 -14 6 -6 3 7 2 16 -1 19 -3 4 -6 -2 -5 -13z"/>
<path d="M5611 6384 c0 -11 3 -14 6 -6 3 7 2 16 -1 19 -3 4 -6 -2 -5 -13z"/>
<path d="M6211 6376 c-7 -9 -28 -18 -47 -22 -28 -5 -32 -9 -23 -20 18 -22 82
-17 119 9 19 12 34 27 34 32 1 17 -69 18 -83 1z"/>
<path d="M5545 6360 c-3 -6 1 -7 9 -4 18 7 21 14 7 14 -6 0 -13 -4 -16 -10z"/>
<path d="M6475 6170 c-22 -14 -32 -16 -42 -8 -8 6 -16 8 -20 4 -3 -3 -2 -6 4
-6 6 0 13 -9 16 -20 8 -30 33 -24 74 15 29 28 32 35 17 35 -10 0 -32 -9 -49
-20z"/>
<path d="M4439 5792 c-3 -20 -2 -29 4 -23 5 5 7 19 5 32 -3 20 -5 19 -9 -9z"/>
<path d="M6494 5754 c-16 -87 28 -173 104 -205 26 -11 65 -29 88 -39 87 -42
98 -94 14 -69 -33 10 -59 10 -124 1 -100 -15 -223 -16 -231 -2 -12 20 -43 9
-69 -24 -32 -42 -32 -42 -3 -49 89 -20 220 -58 246 -71 23 -12 53 -16 109 -14
75 3 78 4 74 25 -3 17 9 35 48 73 49 47 51 53 45 88 -15 89 -14 106 2 124 9
10 27 18 40 18 59 0 173 53 173 81 0 4 -18 5 -40 2 -25 -4 -46 -1 -55 7 -16
13 -66 9 -158 -11 -77 -18 -160 5 -214 58 l-42 42 -7 -35z m133 -426 c-3 -8
-6 -5 -6 6 -1 11 2 17 5 13 3 -3 4 -12 1 -19z m-17 -21 c0 -5 -7 -6 -16 -3 -9
4 -23 1 -31 -6 -11 -9 -16 -9 -23 3 -7 10 -5 15 5 17 9 2 13 7 10 12 -3 5 8 3
25 -3 16 -6 30 -15 30 -20z"/>
<path d="M6421 5736 c-8 -9 -11 -19 -7 -23 9 -9 29 13 24 27 -2 8 -8 7 -17 -4z"/>
<path d="M5680 5656 c0 -29 17 -43 33 -27 8 8 9 16 1 28 -17 27 -34 27 -34 -1z"/>
<path d="M6268 5633 c7 -3 16 -2 19 1 4 3 -2 6 -13 5 -11 0 -14 -3 -6 -6z"/>
<path d="M4082 5290 c0 -14 2 -19 5 -12 2 6 2 18 0 25 -3 6 -5 1 -5 -13z"/>
<path d="M4550 5241 c0 -12 5 -21 10 -21 6 0 10 6 10 14 0 8 -4 18 -10 21 -5
3 -10 -3 -10 -14z"/>
<path d="M4081 5184 c-13 -29 -6 -47 9 -24 9 14 14 50 7 50 -2 0 -9 -12 -16
-26z"/>
<path d="M6450 5186 c0 -9 6 -16 14 -16 21 0 29 -33 15 -63 -17 -36 7 -87 41
-88 43 -2 68 -6 84 -12 12 -5 22 5 37 36 12 23 32 53 44 67 27 29 43 80 25 80
-6 0 -9 -3 -7 -7 3 -5 1 -19 -4 -32 -7 -19 -14 -22 -35 -17 -17 5 -23 3 -19
-4 13 -21 -38 -9 -78 18 -23 16 -51 31 -62 34 -11 3 -28 9 -37 13 -13 5 -18 2
-18 -9z"/>
<path d="M6105 5110 c3 -5 15 -10 26 -10 11 0 17 5 14 10 -3 6 -15 10 -26 10
-11 0 -17 -4 -14 -10z"/>
<path d="M4520 5098 c0 -7 5 -20 10 -28 8 -12 10 -9 10 13 0 15 -4 27 -10 27
-5 0 -10 -6 -10 -12z"/>
<path d="M1170 5009 c0 -5 5 -7 10 -4 6 3 10 8 10 11 0 2 -4 4 -10 4 -5 0 -10
-5 -10 -11z"/>
<path d="M4362 4890 c0 -14 2 -19 5 -12 2 6 2 18 0 25 -3 6 -5 1 -5 -13z"/>
<path d="M1152 4833 c0 -30 2 -34 8 -18 11 26 12 55 2 55 -5 0 -9 -17 -10 -37z"/>
<path d="M6280 4850 c0 -5 5 -10 10 -10 6 0 10 5 10 10 0 6 -4 10 -10 10 -5 0
-10 -4 -10 -10z"/>
<path d="M4340 4815 c0 -8 2 -15 4 -15 2 0 6 7 10 15 3 8 1 15 -4 15 -6 0 -10
-7 -10 -15z"/>
<path d="M7242 4640 c0 -14 2 -19 5 -12 2 6 2 18 0 25 -3 6 -5 1 -5 -13z"/>
<path d="M5450 4069 c0 -4 -17 -12 -37 -18 l-38 -11 35 4 c19 2 51 11 70 19
l35 15 -32 -1 c-18 0 -33 -3 -33 -8z"/>
<path d="M4560 3735 c0 -8 84 -155 87 -152 3 4 -77 157 -83 157 -2 0 -4 -2 -4
-5z"/>
<path d="M5975 3650 c3 -5 8 -10 11 -10 2 0 4 5 4 10 0 6 -5 10 -11 10 -5 0
-7 -4 -4 -10z"/>
<path d="M5210 3498 c0 -13 5 -30 10 -38 7 -11 10 -7 10 17 0 17 -4 35 -10 38
-6 3 -10 -4 -10 -17z"/>
<path d="M500 2591 c0 -5 5 -13 10 -16 6 -3 10 -2 10 4 0 5 -4 13 -10 16 -5 3
-10 2 -10 -4z"/>
<path d="M8430 1850 c0 -12 8 -12 35 0 18 8 17 9 -7 9 -16 1 -28 -3 -28 -9z"/>
<path d="M11070 1551 c0 -5 5 -13 10 -16 6 -3 10 -2 10 4 0 5 -4 13 -10 16 -5
3 -10 2 -10 -4z"/>
<path d="M10973 1543 c-24 -9 -13 -20 13 -15 19 3 25 1 20 -7 -5 -7 3 -11 23
-11 17 0 31 5 31 10 0 6 -9 10 -19 10 -11 0 -23 5 -26 10 -7 11 -22 12 -42 3z"/>
<path d="M10997 1460 c7 -25 23 -37 23 -17 0 8 -6 20 -14 26 -12 10 -13 8 -9
-9z"/>
<path d="M9410 1235 c0 -14 5 -25 10 -25 6 0 10 11 10 25 0 14 -4 25 -10 25
-5 0 -10 -11 -10 -25z"/>
<path d="M10075 1150 c3 -5 11 -10 16 -10 6 0 7 5 4 10 -3 6 -11 10 -16 10 -6
0 -7 -4 -4 -10z"/>
<path d="M9963 885 c0 -8 5 -15 11 -15 6 0 4 -5 -4 -10 -8 -6 -27 -7 -42 -4
-14 3 -29 0 -33 -5 -3 -6 -15 -11 -26 -11 -10 0 -19 -6 -19 -13 0 -11 15 -13
63 -10 52 3 66 1 78 -13 12 -16 12 -17 -4 -11 -11 4 -16 3 -12 -3 5 -9 47 -5
67 7 11 6 -24 43 -40 43 -9 0 -12 9 -10 27 2 19 -2 29 -13 31 -9 1 -16 -4 -16
-13z"/>
<path d="M9315 880 c3 -5 8 -10 11 -10 2 0 4 5 4 10 0 6 -5 10 -11 10 -5 0 -7
-4 -4 -10z"/>
<path d="M9700 850 c0 -28 -21 -34 -63 -16 -52 21 -96 6 -97 -33 0 -10 3 -11
13 -3 18 15 67 5 92 -18 25 -23 75 -43 75 -30 0 6 11 10 24 10 14 0 28 5 31
10 3 6 20 10 38 10 29 0 30 1 11 15 -25 19 -44 19 -44 -1 0 -13 -3 -14 -15 -4
-8 7 -21 10 -29 7 -8 -3 -20 1 -26 9 -9 10 -9 14 -1 14 6 0 11 11 11 25 0 14
-4 25 -10 25 -5 0 -10 -9 -10 -20z"/>
<path d="M10070 840 c0 -5 -7 -7 -16 -3 -15 6 -15 4 -1 -18 8 -13 18 -40 22
-59 4 -19 22 -58 41 -87 19 -28 34 -56 34 -61 0 -10 33 -42 43 -42 16 0 5 46
-23 97 -16 30 -30 63 -30 74 0 11 -7 22 -15 25 -8 4 -18 24 -21 45 -4 23 -12
39 -20 39 -8 0 -14 -4 -14 -10z"/>
<path d="M10246 825 c4 -8 8 -15 10 -15 2 0 4 7 4 15 0 8 -4 15 -10 15 -5 0
-7 -7 -4 -15z"/>
<path d="M9930 780 c0 -5 5 -10 10 -10 6 0 10 5 10 10 0 6 -4 10 -10 10 -5 0
-10 -4 -10 -10z"/>
<path d="M9497 756 c-3 -8 1 -20 9 -26 11 -10 14 -9 14 8 0 25 -16 37 -23 18z"/>
<path d="M9293 696 c2 -30 27 -50 27 -22 0 9 -4 16 -9 16 -5 0 -12 8 -15 18
-2 9 -4 4 -3 -12z"/>
<path d="M9538 695 c-4 -17 -1 -25 8 -25 8 0 14 9 14 19 0 30 -17 34 -22 6z"/>
<path d="M8815 670 c3 -5 8 -10 11 -10 2 0 4 5 4 10 0 6 -5 10 -11 10 -5 0 -7
-4 -4 -10z"/>
<path d="M9512 629 c2 -6 8 -10 13 -10 5 0 11 4 13 10 2 6 -4 11 -13 11 -9 0
-15 -5 -13 -11z"/>
<path d="M10321 580 c22 -22 45 -38 51 -34 11 7 -23 43 -59 63 -35 18 -34 13
8 -29z"/>
<path d="M9910 430 c0 -5 5 -10 11 -10 5 0 7 5 4 10 -3 6 -8 10 -11 10 -2 0
-4 -4 -4 -10z"/>
<path d="M9810 400 c0 -5 5 -10 11 -10 5 0 7 5 4 10 -3 6 -8 10 -11 10 -2 0
-4 -4 -4 -10z"/>
<path d="M10080 400 c0 -5 5 -10 11 -10 5 0 7 5 4 10 -3 6 -8 10 -11 10 -2 0
-4 -4 -4 -10z"/>
<path d="M9960 380 c0 -5 17 -10 38 -10 27 0 33 3 22 10 -20 13 -60 13 -60 0z"/>
<path d="M9310 370 c0 -5 5 -10 11 -10 5 0 7 5 4 10 -3 6 -8 10 -11 10 -2 0
-4 -4 -4 -10z"/>
<path d="M9521 339 c11 -22 39 -25 39 -5 0 7 -11 16 -25 18 -21 4 -23 3 -14
-13z"/>
<path d="M9665 340 c3 -5 11 -10 16 -10 6 0 7 5 4 10 -3 6 -11 10 -16 10 -6 0
-7 -4 -4 -10z"/>
<path d="M10325 334 c11 -4 23 -12 27 -19 4 -7 18 -10 33 -7 15 2 25 0 25 -7
0 -6 7 -11 16 -11 26 0 -1 27 -34 33 -54 11 -87 16 -67 11z"/>
<path d="M10327 249 c-7 -27 -1 -39 19 -39 17 0 17 1 0 34 -13 26 -14 26 -19
5z"/>
<path d="M9637 243 c-13 -13 -7 -53 8 -53 10 0 15 10 15 30 0 29 -9 38 -23 23z"/>
<path d="M11010 182 c0 -31 -4 -42 -15 -42 -9 0 -20 -12 -25 -26 -13 -34 -13
-34 10 -34 11 0 20 -6 20 -14 0 -9 7 -12 20 -9 14 4 20 0 20 -11 0 -9 8 -16
19 -16 28 0 34 76 9 109 -10 13 -18 29 -18 36 0 6 -9 20 -20 30 -20 18 -20 17
-20 -23z"/>
<path d="M10530 173 c0 -18 -4 -35 -10 -38 -5 -3 -7 -19 -3 -35 3 -20 1 -30
-6 -30 -7 0 -9 -4 -6 -10 12 -19 30 12 31 52 0 23 6 43 15 48 12 8 11 12 -3
27 -17 16 -18 16 -18 -14z"/>
<path d="M10347 153 c-13 -12 -7 -33 8 -33 8 0 15 -7 15 -15 0 -20 16 -19 24
1 12 31 -26 69 -47 47z"/>
<path d="M10437 133 c-12 -12 -7 -33 8 -33 17 0 19 9 7 28 -5 7 -11 9 -15 5z"/>
<path d="M10290 71 c0 -11 42 -43 48 -37 2 2 -3 13 -10 25 -13 21 -38 29 -38
12z"/>
<path d="M10450 20 c0 -13 5 -18 15 -14 12 5 13 10 4 20 -15 19 -19 18 -19 -6z"/>
<path d="M10350 10 c0 -5 5 -10 11 -10 5 0 7 5 4 10 -3 6 -8 10 -11 10 -2 0
-4 -4 -4 -10z"/>
<path d="M10490 9 c0 -5 5 -7 10 -4 6 3 10 8 10 11 0 2 -4 4 -10 4 -5 0 -10
-5 -10 -11z"/>
</g>
</svg>
